<?xml version="1.0" encoding="iso-8859-1"?>
<!-- Generator: Adobe Illustrator 19.0.0, SVG Export Plug-In . SVG Version: 6.00 Build 0)  -->
<svg version="1.1" id="Capa_1" xmlns="http://www.w3.org/2000/svg" xmlns:xlink="http://www.w3.org/1999/xlink" x="0px" y="0px"
	 viewBox="0 0 512 512" style="enable-background:new 0 0 512 512;" xml:space="preserve">
<g>
	<g>
		<path d="M170.667,341.333c-51.755,0-93.867,42.112-93.867,93.867V512h17.067v-76.8c0-42.351,34.458-76.8,76.8-76.8h25.6v-17.067
			H170.667z"/>
	</g>
</g>
<g>
	<g>
		<path d="M290.133,298.667v50.031L256,471.578l-34.133-122.88v-50.031H204.8v51.2c0,0.776,0.102,1.544,0.316,2.287l42.667,153.6
			C248.806,509.44,252.169,512,256,512c3.831,0,7.202-2.56,8.226-6.246l42.667-153.6c0.196-0.742,0.307-1.51,0.307-2.287v-51.2
			H290.133z"/>
	</g>
</g>
<g>
	<g>
		<circle cx="204.8" cy="179.2" r="17.067"/>
	</g>
</g>
<g>
	<g>
		<circle cx="307.2" cy="179.2" r="17.067"/>
	</g>
</g>
<g>
	<g>
		<path d="M284.1,232.892c-9.404,9.395-21.888,14.566-35.183,14.575h-9.984v17.067h9.984c17.852-0.008,34.628-6.955,47.249-19.567
			L284.1,232.892z"/>
	</g>
</g>
<g>
	<g>
		<path d="M252.74,213.333l10.888-21.777l-15.266-7.637l-17.067,34.133c-1.323,2.645-1.178,5.786,0.375,8.303
			c1.562,2.509,4.301,4.045,7.262,4.045h25.6v-17.067H252.74z"/>
	</g>
</g>
<g>
	<g>
		<path d="M341.333,145.067v68.267c0,47.053-38.281,85.333-85.333,85.333s-85.333-38.281-85.333-85.333H153.6
			c0,56.465,45.935,102.4,102.4,102.4s102.4-45.935,102.4-102.4v-68.267H341.333z"/>
	</g>
</g>
<g>
	<g>
		<path d="M375.475,213.333v43.767c-0.008,7.62-3.362,14.78-9.224,19.652l-38.912,32.427l10.931,13.116l38.904-32.427
			c9.762-8.124,15.36-20.07,15.369-32.759v-43.776H375.475z"/>
	</g>
</g>
<g>
	<g>
		<path d="M256,0c-79.991,0-145.067,65.075-145.067,145.067v17.067H128v-17.067c0-70.579,57.421-128,128-128s128,57.421,128,128
			v17.067h17.067v-17.067C401.067,65.075,335.992,0,256,0z"/>
	</g>
</g>
<g>
	<g>
		<path d="M366.933,145.067h-17.067c-4.719,0-8.533,3.823-8.533,8.533v68.267c0,4.71,3.814,8.533,8.533,8.533h17.067
			c23.526,0,42.667-19.14,42.667-42.667C409.6,164.207,390.46,145.067,366.933,145.067z M366.933,213.333H358.4v-51.2h8.533
			c14.114,0,25.6,11.486,25.6,25.6S381.047,213.333,366.933,213.333z"/>
	</g>
</g>
<g>
	<g>
		<path d="M145.067,213.333c-14.114,0-25.6-11.486-25.6-25.6s11.486-25.6,25.6-25.6v-17.067c-23.526,0-42.667,19.14-42.667,42.667
			c0,23.526,19.14,42.667,42.667,42.667h17.067v-17.067H145.067z"/>
	</g>
</g>
<g>
	<g>
		<rect x="153.6" y="170.667" width="17.067" height="51.2"/>
	</g>
</g>
<g>
	<g>
		<path d="M256,34.133c-61.167,0-110.933,49.766-110.933,110.933V179.2c0,2.961,1.536,5.7,4.045,7.262
			c1.374,0.845,2.927,1.271,4.489,1.271c1.306,0,2.611-0.299,3.806-0.896l146.236-73.114c11.998,20.275,29.815,36.966,50.935,47.514
			c2.662,1.323,5.794,1.178,8.303-0.375c2.517-1.562,4.053-4.301,4.053-7.262v-8.533C366.933,83.9,317.167,34.133,256,34.133z
			 M314.837,98.594c-1.007-2.022-2.782-3.567-4.932-4.284c-2.142-0.725-4.489-0.546-6.519,0.461l-141.252,70.622v-20.326
			c0-51.755,42.112-93.867,93.867-93.867c49.57,0,90.283,38.613,93.645,87.347C334.933,128.427,322.833,114.603,314.837,98.594z"/>
	</g>
</g>
<g>
	<g>
		<path d="M203.648,396.774c-1.792-3.055-5.299-4.676-8.772-4.113l-29.201,4.864l54.332-67.917l-13.329-10.667l-68.267,85.333
			c-2.21,2.765-2.492,6.605-0.7,9.651c1.783,3.046,5.274,4.634,8.764,4.096l45.389-7.569l56.764,97.314l14.754-8.593
			L203.648,396.774z"/>
	</g>
</g>
<g>
	<g>
		<path d="M341.333,341.333h-25.6V358.4h25.6c42.351,0,76.8,34.449,76.8,76.8V512H435.2v-76.8
			C435.2,383.445,393.088,341.333,341.333,341.333z"/>
	</g>
</g>
<g>
	<g>
		<path d="M373.606,404.267l-68.267-85.333L292.002,329.6l54.34,67.917l-29.21-4.864c-3.447-0.538-6.98,1.058-8.772,4.113
			l-59.733,102.4l14.746,8.602l56.772-97.314l45.397,7.561c3.43,0.546,6.963-1.041,8.755-4.096
			C376.09,410.863,375.817,407.032,373.606,404.267z"/>
	</g>
</g>
<g>
	<g>
		<path d="M375.467,477.867H307.2c-4.719,0-8.533,3.814-8.533,8.533V512h17.067v-17.067h51.2V512H384v-25.6
			C384,481.681,380.186,477.867,375.467,477.867z"/>
	</g>
</g>
<g>
	<g>
		<rect x="332.8" y="460.8" width="17.067" height="25.6"/>
	</g>
</g>
<g>
</g>
<g>
</g>
<g>
</g>
<g>
</g>
<g>
</g>
<g>
</g>
<g>
</g>
<g>
</g>
<g>
</g>
<g>
</g>
<g>
</g>
<g>
</g>
<g>
</g>
<g>
</g>
<g>
</g>
</svg>
