<?xml version="1.0" encoding="utf-8"?>
<svg version="1.1" id="Layer_1" xmlns="http://www.w3.org/2000/svg" xmlns:xlink="http://www.w3.org/1999/xlink" x="0px" y="0px"
	 viewBox="0 0 1280 800" style="enable-background:new 0 0 1280 800;" xml:space="preserve">
<style type="text/css">
	.st0{fill:#00cc99;}
</style>
<path class="st0" d="M640.8,303l-0.8-0.1l-76.7,8v140.6l76.7,45.6l76.7-45.6V310.9L640.8,303z M706.7,445.8L640,485.4l-66.7-39.7
	v-57.6l66.4,39.5l0.1,7.2l-45.5-27.1l-0.1,7l45.7,27.5l0.1,7.3l-45.7-27.2l-0.1,7l45.7,27.5l46.2-27.6v-7l-0.1,0v-2.4v-2.9v-17.5
	l20.6-12.3V445.8z M706.6,379.7l-18.2,10.7l-8.4,5l-40.1-23.9l-0.1,7l34.3,20.4l-0.3,0.2l-0.7,0.4l-4.9,2.9l-28.3-16.9l-0.1,7
	l22.4,13.3l-5.3,3.5l-0.1,0.1l-16.9-10l-0.1,7l11.1,6.5l-11.3,6.8l-66-39.3l66.1-39.8v0L706.6,379.7z M706.7,372.7l-67-39.5v0l0,0
	l0,0v0l-66.3,39.5V320l66.7-7l66.7,7V372.7z"/>
</svg>
